<svg width="16" height="16" viewBox="0 0 16 16" fill="none" xmlns="http://www.w3.org/2000/svg">
<path d="M13.3333 5.33333C14.804 5.33333 16 4.13733 16 2.66667C16 1.196 14.804 0 13.3333 0C11.8626 0 10.6666 1.196 10.6666 2.66667C10.6666 4.13733 11.8626 5.33333 13.3333 5.33333ZM13.3333 1.33333C14.0686 1.33333 14.6666 1.93133 14.6666 2.66667C14.6666 3.402 14.0686 4 13.3333 4C12.598 4 12 3.402 12 2.66667C12 1.93133 12.598 1.33333 13.3333 1.33333ZM15.5146 10.8313L15.5113 10.8187V10.818L14.4626 6.50267C14.104 6.608 13.726 6.66733 13.3333 6.66733C13.264 6.66733 13.1966 6.66067 13.128 6.65667L14.2193 11.1467C14.2206 11.1513 14.224 11.1547 14.2246 11.16H14.222C14.2766 11.3653 14.236 11.57 14.1093 11.7373C13.9813 11.9073 13.792 12.0007 13.5786 12.0007H2.32864C2.1253 12.0007 1.93597 11.9093 1.80997 11.7533C1.68197 11.5933 1.63397 11.388 1.67197 11.212L3.23997 5.134C3.7373 2.89667 5.69464 1.334 7.99997 1.334C8.5153 1.334 9.0153 1.422 9.48797 1.57467C9.6133 1.134 9.81064 0.724667 10.0693 0.360667C9.41664 0.128667 8.7193 0.00133333 7.99997 0.00133333C5.0653 0 2.57264 1.992 1.94397 4.822L0.375971 10.9013C0.244638 11.4947 0.387971 12.1087 0.769971 12.5867C1.15197 13.0613 1.72064 13.3333 2.32864 13.3333H4.73397C5.04397 14.8527 6.38997 16 7.99997 16C9.60997 16 10.956 14.8527 11.266 13.3333H13.5793C14.2106 13.3333 14.7906 13.0447 15.1726 12.5427C15.5433 12.054 15.6653 11.436 15.5153 10.8427C15.5146 10.8387 15.5153 10.8353 15.5153 10.8313H15.5146ZM7.99997 14.6667C7.13197 14.6667 6.39864 14.1073 6.12264 13.3333H9.87664C9.60064 14.1073 8.8673 14.6667 7.9993 14.6667H7.99997Z" fill="white"/>
</svg>
