<svg width="19" height="18" viewBox="0 0 19 18" fill="none" xmlns="http://www.w3.org/2000/svg">
<g clip-path="url(#clip0_698_2604)">
<path d="M13.25 7.52925C10.3558 7.52925 8 9.88425 8 12.7792C8 15.6578 10.3558 18 13.25 18C16.1442 18 18.5 15.645 18.5 12.75C18.5 9.8715 16.1442 7.52925 13.25 7.52925ZM13.25 16.5C11.1823 16.5 9.5 14.8305 9.5 12.7792C9.5 10.7115 11.1823 9.02925 13.25 9.02925C15.3177 9.02925 17 10.6988 17 12.75C17 14.8177 15.3177 16.5 13.25 16.5ZM14.5303 12.9697C14.8235 13.263 14.8235 13.737 14.5303 14.0303C14.384 14.1765 14.192 14.25 14 14.25C13.808 14.25 13.616 14.1765 13.4697 14.0303L12.7197 13.2803C12.5787 13.1393 12.5 12.9487 12.5 12.75V11.25C12.5 10.836 12.8352 10.5 13.25 10.5C13.6648 10.5 14 10.836 14 11.25V12.4395L14.5303 12.9697ZM18.5 5.25V6.75C18.5 7.164 18.1647 7.5 17.75 7.5C17.3353 7.5 17 7.164 17 6.75V5.25C17 4.0095 15.9905 3 14.75 3H4.25C3.0095 3 2 4.0095 2 5.25V6H8.75C9.164 6 9.5 6.336 9.5 6.75C9.5 7.164 9.164 7.5 8.75 7.5H2V14.25C2 15.4905 3.0095 16.5 4.25 16.5H7.25C7.664 16.5 8 16.836 8 17.25C8 17.664 7.664 18 7.25 18H4.25C2.18225 18 0.5 16.3177 0.5 14.25V5.25C0.5 3.18225 2.18225 1.5 4.25 1.5H5V0.75C5 0.336 5.336 0 5.75 0C6.164 0 6.5 0.336 6.5 0.75V1.5H12.5V0.75C12.5 0.336 12.8352 0 13.25 0C13.6648 0 14 0.336 14 0.75V1.5H14.75C16.8177 1.5 18.5 3.18225 18.5 5.25Z" fill="white"/>
</g>
<defs>
<clipPath id="clip0_698_2604">
<rect width="18" height="18" fill="white" transform="translate(0.5)"/>
</clipPath>
</defs>
</svg>
